<svg width="16" height="26" viewBox="0 0 16 26" fill="none" xmlns="http://www.w3.org/2000/svg">
<path d="M3.61462 16.971C3.60735 16.9761 3.60064 16.9819 3.59462 16.9885C3.42066 17.1561 3.28263 17.3573 3.18894 17.5799C3.09524 17.8026 3.04784 18.0419 3.04962 18.2835C3.05144 18.7361 3.22165 19.1719 3.52712 19.506C3.21987 19.8369 3.04928 20.2719 3.04962 20.7235C3.05057 21.0532 3.14049 21.3766 3.30989 21.6595C3.47929 21.9425 3.72189 22.1744 4.01212 22.331C4.10496 22.3777 4.20207 22.4154 4.30212 22.4435C4.41499 23.3149 4.84095 24.1155 5.50057 24.696C6.16019 25.2765 7.00843 25.5973 7.88712 25.5985H7.96212C8.83918 25.5962 9.6856 25.2756 10.3441 24.6962C11.0025 24.1168 11.4282 23.3181 11.5421 22.4485C11.6427 22.4184 11.7405 22.3799 11.8346 22.3335C11.9917 22.2522 12.1344 22.1458 12.2571 22.0185C12.4301 21.8502 12.5676 21.6488 12.6612 21.4263C12.7548 21.2039 12.8027 20.9648 12.8021 20.7235C12.8003 20.2708 12.6301 19.835 12.3246 19.501C12.6319 19.17 12.8025 18.7351 12.8021 18.2835C12.8002 18.0373 12.7487 17.7939 12.6508 17.568C12.5529 17.3421 12.4105 17.1382 12.2321 16.9685C12.3824 15.5422 12.9671 14.1966 13.9071 13.1135C14.9196 11.9461 15.5686 10.5081 15.7742 8.97661C15.9798 7.44508 15.733 5.88685 15.0643 4.49379C14.3955 3.10073 13.334 1.93366 12.0103 1.13627C10.6867 0.338879 9.15872 -0.0540111 7.61462 0.00597285C5.60913 0.10965 3.71522 0.96077 2.30615 2.39159C0.89708 3.82241 0.0750659 5.72913 0.00211754 7.73597C-0.0425203 9.66585 0.619884 11.5455 1.86462 13.021C2.828 14.1342 3.43733 15.5095 3.61462 16.971ZM10.9721 17.676C11.0522 17.6753 11.1316 17.6906 11.2058 17.7208C11.2799 17.7511 11.3473 17.7958 11.404 17.8523C11.4608 17.9088 11.5057 17.976 11.5363 18.05C11.5669 18.124 11.5824 18.2034 11.5821 18.2835C11.5822 18.3649 11.5656 18.4455 11.5333 18.5203C11.5011 18.5952 11.4539 18.6626 11.3946 18.7185C11.3396 18.7745 11.2738 18.8189 11.2012 18.849C11.1286 18.879 11.0507 18.8942 10.9721 18.8935H4.87712C4.79713 18.8935 4.71793 18.8777 4.64406 18.847C4.57019 18.8163 4.50311 18.7713 4.44666 18.7147C4.39022 18.658 4.34552 18.5907 4.31514 18.5167C4.28476 18.4427 4.26929 18.3635 4.26962 18.2835C4.26859 18.2037 4.28405 18.1245 4.31502 18.0509C4.34599 17.9774 4.39181 17.911 4.44962 17.856C4.48647 17.8198 4.52664 17.7871 4.56962 17.7585C4.66277 17.7037 4.76904 17.6752 4.87712 17.676H10.9721ZM7.97212 24.3785H7.89712C7.36106 24.3776 6.84074 24.1972 6.41929 23.8659C5.99784 23.5346 5.69956 23.0717 5.57212 22.551H10.2946C10.1657 23.0723 9.86596 23.5354 9.44324 23.8666C9.02053 24.1978 8.49913 24.378 7.96212 24.3785H7.97212ZM11.3846 21.166C11.3496 21.2038 11.3081 21.2351 11.2621 21.2585C11.1729 21.3061 11.0733 21.331 10.9721 21.331H4.87712C4.7779 21.3307 4.68018 21.3067 4.59212 21.261C4.49511 21.2085 4.41399 21.131 4.35725 21.0364C4.30051 20.9418 4.27024 20.8338 4.26962 20.7235C4.27119 20.6438 4.28858 20.5651 4.32076 20.4922C4.35295 20.4192 4.3993 20.3534 4.45712 20.2985C4.51166 20.2426 4.57706 20.1985 4.64928 20.1688C4.72151 20.1391 4.79905 20.1246 4.87712 20.126H10.9721C11.1339 20.126 11.2891 20.1902 11.4035 20.3046C11.5179 20.419 11.5821 20.5742 11.5821 20.736C11.5802 20.8173 11.5617 20.8974 11.5277 20.9714C11.4938 21.0453 11.4451 21.1115 11.3846 21.166ZM7.67462 1.22347C8.9817 1.1711 10.2755 1.5025 11.3965 2.17679C12.5174 2.85109 13.4165 3.83877 13.9827 5.01801C14.5489 6.19724 14.7575 7.51644 14.5829 8.81285C14.4082 10.1093 13.8578 11.3262 12.9996 12.3135C11.9796 13.4894 11.3131 14.9298 11.0771 16.4685C11.0471 16.4685 11.0171 16.456 10.9846 16.456H8.53462V10.6135L11.4046 7.74347C11.5153 7.62834 11.5764 7.47441 11.5748 7.31473C11.5732 7.15506 11.509 7.00237 11.3961 6.88946C11.2832 6.77654 11.1305 6.71241 10.9709 6.71082C10.8112 6.70924 10.6573 6.77033 10.5421 6.88097L7.92462 9.49847L5.30962 6.88097C5.2534 6.82248 5.18609 6.77579 5.11161 6.74363C5.03713 6.71147 4.95698 6.69449 4.87586 6.69368C4.79474 6.69288 4.71427 6.70826 4.63916 6.73893C4.56406 6.76961 4.49583 6.81495 4.43846 6.87232C4.3811 6.92968 4.33575 6.99792 4.30508 7.07302C4.27441 7.14812 4.25902 7.22859 4.25983 7.30971C4.26063 7.39084 4.27761 7.47098 4.30977 7.54546C4.34193 7.61994 4.38862 7.68726 4.44712 7.74347L7.31462 10.611V16.456H4.87712C4.84462 16.456 4.81462 16.4685 4.78212 16.4685C4.51924 14.9029 3.83276 13.4391 2.79712 12.236C1.74425 10.9881 1.18407 9.39825 1.22212 7.76597C1.2838 6.06581 1.98079 4.45058 3.17542 3.23928C4.37005 2.02799 5.97547 1.3087 7.67462 1.22347Z" fill="#0A0D18"/>
</svg>
