<svg width="25" height="26" viewBox="0 0 25 26" fill="none" xmlns="http://www.w3.org/2000/svg">
<g clip-path="url(#clip0_97_256)">
<path d="M24.7341 10.5658L12.8837 1.5421C12.6552 1.36813 12.3448 1.36813 12.1164 1.5421L0.265867 10.5658C-0.0235863 10.7862 -0.0864769 11.2089 0.125486 11.51C0.337449 11.811 0.743943 11.8763 1.03335 11.656L12.5 2.92442L23.9666 11.6559C24.0823 11.744 24.2166 11.7864 24.3499 11.7864C24.5499 11.7864 24.7472 11.6907 24.8745 11.5099C25.0865 11.2089 25.0236 10.7862 24.7341 10.5658Z" fill="#0A0D18"/>
<path d="M21.594 11.8088C21.2353 11.8088 20.9445 12.1113 20.9445 12.4844V23.2373H15.7481V17.3677C15.7481 15.505 14.291 13.9897 12.5 13.9897C10.7091 13.9897 9.252 15.5051 9.252 17.3677V23.2373H4.05556V12.4844C4.05556 12.1113 3.76469 11.8089 3.406 11.8089C3.04731 11.8089 2.75644 12.1113 2.75644 12.4844V23.9129C2.75644 24.286 3.04731 24.5884 3.406 24.5884H9.90156C10.2432 24.5884 10.5227 24.314 10.5486 23.9655C10.5501 23.9497 10.5511 23.9325 10.5511 23.9129V17.3677C10.5511 16.2501 11.4254 15.3408 12.5 15.3408C13.5747 15.3408 14.449 16.2501 14.449 17.3677V23.9129C14.449 23.9324 14.4499 23.9493 14.4515 23.9649C14.4771 24.3136 14.7567 24.5884 15.0985 24.5884H21.5941C21.9528 24.5884 22.2436 24.286 22.2436 23.9129V12.4844C22.2436 12.1113 21.9528 11.8088 21.594 11.8088Z" fill="#0A0D18"/>
</g>
<defs>
<clipPath id="clip0_97_256">
<rect width="25" height="26" fill="white"/>
</clipPath>
</defs>
</svg>
