<svg width="27" height="27" viewBox="0 0 27 27" fill="none" xmlns="http://www.w3.org/2000/svg">
<g clip-path="url(#clip0_100_531)">
<path d="M16.65 15.75H16.155C15.9688 15.7503 15.8023 15.6342 15.7383 15.4593C15.6834 15.3153 15.6245 15.1744 15.561 15.0349C15.4821 14.8653 15.5181 14.6644 15.651 14.5327L16.0038 14.1795C16.5275 13.6511 16.5266 12.7991 16.0015 12.2719L14.7299 11.0002C14.2021 10.4755 13.3496 10.4755 12.8218 11.0002L12.469 11.3526C12.3371 11.485 12.1366 11.5209 11.9669 11.4426C11.8273 11.3791 11.6865 11.3202 11.542 11.2626C11.3663 11.1991 11.2493 11.0319 11.25 10.845V10.35C11.25 9.60441 10.6456 9 9.9 9H8.1C7.35441 9 6.75 9.60441 6.75 10.35V10.845C6.75034 11.0312 6.63418 11.1977 6.4593 11.2617C6.3153 11.3166 6.17445 11.3756 6.03495 11.439C5.86524 11.5175 5.66466 11.4815 5.53275 11.349L5.1795 10.9962C4.65176 10.4718 3.79969 10.4718 3.27195 10.9962L2.00025 12.2719C1.47555 12.7997 1.47555 13.6522 2.00025 14.1799L2.3526 14.5327C2.48546 14.6644 2.52146 14.8653 2.4426 15.0349C2.37915 15.1744 2.3202 15.3153 2.26485 15.4597C2.20044 15.6356 2.03231 15.7519 1.845 15.75H1.35C0.604406 15.75 0 16.3544 0 17.1V18.9C0 19.6456 0.604406 20.25 1.35 20.25H1.845C2.03119 20.2497 2.19774 20.3658 2.2617 20.5407C2.3166 20.6847 2.37555 20.8256 2.439 20.965C2.51786 21.1347 2.48186 21.3356 2.349 21.4673L1.9962 21.8205C1.47184 22.3482 1.47184 23.2003 1.9962 23.728L3.2679 24.9998C3.79569 25.5245 4.64811 25.5245 5.1759 24.9998L5.5287 24.6474C5.66066 24.515 5.86119 24.4791 6.0309 24.5574C6.1704 24.6208 6.31125 24.6798 6.4557 24.7374C6.63238 24.8002 6.75034 24.9675 6.75 25.155V25.65C6.75 26.3956 7.35441 27 8.1 27H9.9C10.6456 27 11.25 26.3956 11.25 25.65V25.155C11.2497 24.9688 11.3658 24.8023 11.5407 24.7383C11.6847 24.6834 11.8256 24.6245 11.965 24.561C12.1348 24.4825 12.3353 24.5185 12.4672 24.651L12.8205 25.0038C13.349 25.5273 14.2008 25.5263 14.728 25.0015L15.9998 23.7299C16.5245 23.2021 16.5245 22.3496 15.9998 21.8218L15.6474 21.469C15.5145 21.3374 15.4785 21.1365 15.5574 20.9668C15.6208 20.8273 15.6798 20.6865 15.7374 20.542C15.8009 20.3663 15.9681 20.2493 16.155 20.25H16.65C17.3956 20.25 18 19.6456 18 18.9V17.1C18 16.3544 17.3956 15.75 16.65 15.75ZM17.1 18.9C17.1 19.1485 16.8985 19.35 16.65 19.35H16.155C15.5956 19.3521 15.095 19.6978 14.895 20.2203C14.8473 20.3463 14.7957 20.4703 14.7402 20.5925C14.5088 21.1032 14.6162 21.7037 15.0102 22.1026L15.3621 22.455C15.5379 22.6306 15.5381 22.9156 15.3624 23.0914C15.3623 23.0915 15.3622 23.0916 15.3621 23.0917L14.0904 24.3634C13.9147 24.5391 13.6298 24.5391 13.4541 24.3634L13.1013 24.0111C12.7025 23.6167 12.1018 23.5093 11.5911 23.7411C11.4691 23.7964 11.3449 23.8482 11.2198 23.8959C10.6978 24.0958 10.3523 24.596 10.35 25.155V25.65C10.35 25.8985 10.1485 26.1 9.9 26.1H8.1C7.85149 26.1 7.65 25.8985 7.65 25.65V25.155C7.64792 24.5956 7.30215 24.095 6.7797 23.895C6.6537 23.8473 6.52967 23.7957 6.40755 23.7402C5.8968 23.509 5.29633 23.6163 4.89735 24.0102L4.545 24.3621C4.36939 24.5379 4.08442 24.5381 3.90859 24.3624C3.90847 24.3623 3.90836 24.3622 3.90825 24.3621L2.63655 23.0917C2.46088 22.916 2.46088 22.6312 2.63655 22.4555L2.9889 22.1026C3.38293 21.7037 3.49026 21.1032 3.2589 20.5925C3.20355 20.4705 3.1518 20.3463 3.1041 20.2212C2.90464 19.6986 2.40435 19.3525 1.845 19.35H1.35C1.10149 19.35 0.9 19.1485 0.9 18.9V17.1C0.9 16.8515 1.10149 16.65 1.35 16.65H1.845C2.40441 16.6479 2.90503 16.3022 3.105 15.7797C3.1527 15.6537 3.20428 15.5297 3.2598 15.4075C3.49116 14.8968 3.38377 14.2963 2.9898 13.8973L2.6361 13.545C2.46026 13.3694 2.46009 13.0844 2.63576 12.9086C2.63587 12.9085 2.63599 12.9084 2.6361 12.9082L3.9078 11.6365C4.08352 11.4609 4.36837 11.4609 4.5441 11.6365L4.8969 11.9889C5.29566 12.3833 5.89641 12.4907 6.4071 12.2589C6.52905 12.2036 6.65325 12.1518 6.77835 12.1041C7.30114 11.9048 7.64747 11.4045 7.65 10.845V10.35C7.65 10.1015 7.85149 9.9 8.1 9.9H9.9C10.1485 9.9 10.35 10.1015 10.35 10.35V10.845C10.3521 11.4044 10.6978 11.905 11.2203 12.105C11.3463 12.1527 11.4703 12.2043 11.5924 12.2598C12.1031 12.4915 12.7039 12.3842 13.1026 11.9898L13.455 11.6379C13.6314 11.4634 13.9153 11.4634 14.0918 11.6379L15.3634 12.9096C15.5391 13.0853 15.5391 13.3702 15.3634 13.5459L15.0111 13.8987C14.6171 14.2976 14.5097 14.8981 14.7411 15.4089C14.7964 15.5308 14.8482 15.6551 14.8959 15.7802C15.0958 16.3022 15.596 16.6477 16.155 16.65H16.65C16.8985 16.65 17.1 16.8515 17.1 17.1V18.9Z" fill="#0A0D18"/>
<path d="M13.041 17.82C13.0365 17.712 13.0289 17.6044 13.0158 17.4973C13.0014 17.3821 12.9843 17.2678 12.9605 17.1558C12.9447 17.0824 12.924 17.01 12.9042 16.9371C12.879 16.8444 12.8507 16.753 12.8192 16.663C12.7971 16.6005 12.7742 16.5384 12.7508 16.4767C12.6928 16.3326 12.6266 16.1919 12.5523 16.0555C12.5465 16.0452 12.5429 16.0339 12.537 16.0236C12.42 15.8152 12.2844 15.6177 12.132 15.4336C12.119 15.4174 12.1041 15.4021 12.0906 15.3864C12.0285 15.313 11.9646 15.2419 11.8976 15.174C11.8625 15.1375 11.8256 15.1033 11.7887 15.0682C11.7437 15.0264 11.6987 14.985 11.6537 14.9454C11.5991 14.8979 11.5434 14.852 11.4867 14.8077L11.4129 14.7528C10.7166 14.2312 9.86999 13.9495 9.00003 13.95C8.95503 13.95 8.91003 13.9567 8.86503 13.9585C8.76918 13.9612 8.67288 13.9666 8.57613 13.9765C8.52528 13.9819 8.47398 13.9878 8.42313 13.995C8.27643 14.0142 8.13085 14.0415 7.98708 14.0764C5.82027 14.6363 4.51763 16.8468 5.07755 19.0136C5.44655 20.4415 6.5621 21.5561 7.99023 21.924C7.99743 21.924 8.00508 21.9262 8.01273 21.928C8.16815 21.9668 8.32559 21.9969 8.48433 22.018C8.58918 22.0311 8.69403 22.0338 8.79933 22.0387C8.86953 22.0423 8.93433 22.0527 9.00768 22.0527C9.13593 22.0527 9.26913 22.0441 9.40503 22.0306C9.41943 22.0306 9.43383 22.0266 9.45003 22.0248C9.55938 22.0126 9.67008 21.9964 9.78303 21.9739C9.82803 21.9654 9.86988 21.9541 9.91308 21.9442C9.99228 21.9258 10.071 21.9064 10.152 21.8826C10.215 21.8637 10.2762 21.8416 10.3379 21.82C10.3995 21.7984 10.4634 21.775 10.5273 21.7507C10.5912 21.7264 10.6448 21.6985 10.7028 21.6715C10.7784 21.6369 10.8536 21.6027 10.9278 21.5622H10.9305C11.3505 21.3373 11.7384 21.0572 12.0839 20.7292C12.1772 20.6421 12.2584 20.5428 12.3251 20.434C12.6763 19.8709 12.907 19.2412 13.0028 18.5845C13.0154 18.4977 13.0266 18.4108 13.0334 18.3222C13.0397 18.2407 13.0442 18.1597 13.046 18.0787C13.046 18.0531 13.0496 18.0288 13.0496 18.0031C13.05 17.9397 13.0437 17.8812 13.041 17.82ZM12.1442 18.1147C12.1442 18.1521 12.141 18.1894 12.1388 18.2263C12.1307 18.3352 12.1167 18.4441 12.0983 18.5535C11.9301 19.4891 11.3492 20.2991 10.517 20.7585C10.4612 20.7877 10.4063 20.8152 10.3514 20.8404L10.314 20.8584C10.0526 20.977 9.77661 21.0606 9.49323 21.1068C9.47343 21.1099 9.45318 21.1135 9.43293 21.1162C9.37668 21.1243 9.32133 21.1311 9.26643 21.136C9.19398 21.1423 9.12108 21.1459 9.04683 21.1473C9.01533 21.1473 8.98428 21.1473 8.95278 21.1473C8.8463 21.146 8.73998 21.1394 8.63418 21.1275L8.58018 21.1212C8.45643 21.105 8.33369 21.0818 8.21253 21.0519C6.52716 20.6205 5.51061 18.9045 5.94194 17.2191C6.22696 16.1055 7.09602 15.2355 8.20938 14.9494V14.949C8.4679 14.8838 8.7334 14.8505 9.00003 14.85C9.12867 14.8507 9.2572 14.8594 9.38478 14.8761C9.41898 14.8801 9.45273 14.8864 9.48648 14.8914C9.58368 14.9067 9.67998 14.926 9.77493 14.9503C9.80598 14.9584 9.83703 14.9656 9.86763 14.9742C10.1069 15.0432 10.3373 15.1402 10.5539 15.2631C10.5885 15.2833 10.6223 15.3045 10.6565 15.3256C10.7276 15.3706 10.7964 15.4156 10.8644 15.4669C10.9008 15.4935 10.9377 15.5196 10.9728 15.5479C11.0611 15.6184 11.1457 15.6935 11.2262 15.7729C11.2581 15.8053 11.2874 15.8409 11.3184 15.8746C11.3702 15.9309 11.4206 15.9885 11.4687 16.0492C11.502 16.0911 11.534 16.1343 11.5655 16.1779C11.6105 16.2427 11.6555 16.3102 11.696 16.3786C11.7185 16.416 11.741 16.4524 11.7639 16.4907C11.822 16.5975 11.8737 16.7076 11.9187 16.8205C11.9367 16.8655 11.952 16.9105 11.9682 16.9555C11.9975 17.0383 12.0227 17.122 12.0447 17.2066C12.056 17.2516 12.0686 17.2917 12.078 17.3353C12.1043 17.4569 12.1234 17.58 12.1352 17.7039C12.1379 17.7367 12.1379 17.77 12.1401 17.8029C12.1464 17.9064 12.1482 18.0103 12.1442 18.1147Z" fill="#0A0D18"/>
<path d="M25.65 9.45H24.2347C24.046 9.45191 23.8772 9.33306 23.8153 9.1548C23.6758 8.73681 23.5069 8.32911 23.31 7.93485C23.2264 7.76458 23.2612 7.55989 23.3964 7.4268L24.3999 6.42195C24.9266 5.89483 24.9266 5.04062 24.3999 4.5135L22.4865 2.60325C21.9594 2.07652 21.1052 2.07652 20.578 2.60325L19.575 3.60585C19.4421 3.74096 19.2377 3.77595 19.0674 3.6927C18.6731 3.49476 18.2653 3.32499 17.847 3.18465C17.668 3.12339 17.5483 2.95442 17.55 2.76525V1.35C17.55 0.604406 16.9456 0 16.2 0H13.5C12.7544 0 12.15 0.604406 12.15 1.35V2.76525C12.1519 2.95397 12.0331 3.12278 11.8548 3.18465C11.4368 3.32494 11.0291 3.49459 10.6349 3.69225C10.4646 3.77612 10.2598 3.7413 10.1268 3.60585L9.12195 2.60235C8.59421 2.07714 7.74124 2.07714 7.2135 2.60235L5.3037 4.51215C4.7767 5.03933 4.7767 5.89388 5.3037 6.42105L6.77925 7.8993C6.95773 8.07221 7.24264 8.06771 7.41555 7.88918C7.58425 7.71503 7.58464 7.4385 7.41645 7.2639L5.94 5.7861C5.76433 5.61037 5.76433 5.32553 5.94 5.1498L7.8498 3.24C8.02553 3.06433 8.31038 3.06433 8.4861 3.24L9.4914 4.2435C9.89814 4.65266 10.5214 4.75493 11.0376 4.4973C11.3941 4.31882 11.7626 4.16559 12.1406 4.03875C12.6861 3.85408 13.0524 3.34119 13.05 2.76525V1.35C13.05 1.10149 13.2515 0.9 13.5 0.9H16.2C16.4485 0.9 16.65 1.10149 16.65 1.35V2.76525C16.6477 3.34108 17.014 3.8538 17.5595 4.0383C17.9376 4.1652 18.3063 4.31854 18.6629 4.4973C19.1792 4.75358 19.8016 4.6512 20.2086 4.24305L21.2139 3.24C21.3896 3.06433 21.6745 3.06433 21.8502 3.24L23.76 5.15025C23.9354 5.32592 23.9354 5.61043 23.76 5.7861L22.7565 6.7914C22.3477 7.19837 22.2455 7.82134 22.5027 8.3376C22.6812 8.69406 22.8344 9.06261 22.9613 9.44055C23.1458 9.98618 23.6587 10.3525 24.2347 10.35H25.65C25.8985 10.35 26.1 10.5515 26.1 10.8V13.5C26.1 13.7485 25.8985 13.95 25.65 13.95H24.2347C23.6589 13.9477 23.1462 14.314 22.9617 14.8595C22.8349 15.2376 22.6815 15.6063 22.5027 15.9629C22.246 16.4791 22.3484 17.1017 22.7569 17.5086L23.7604 18.5139C23.9361 18.6896 23.9361 18.9745 23.7604 19.1502L21.8498 21.06C21.6741 21.2354 21.3896 21.2354 21.2139 21.06L19.7352 19.5845C19.5623 19.4059 19.2774 19.4014 19.0989 19.5743C18.9204 19.7472 18.9159 20.0321 19.0888 20.2106C19.0924 20.2143 19.0961 20.2181 19.0998 20.2217L20.578 21.6972C21.1052 22.2239 21.9594 22.2239 22.4865 21.6972L24.3963 19.7879C24.9233 19.2607 24.9233 18.4061 24.3963 17.879L23.3941 16.875C23.2591 16.742 23.2242 16.5377 23.3073 16.3674C23.5052 15.9731 23.675 15.5653 23.8153 15.147C23.8766 14.968 24.0456 14.8483 24.2347 14.85H25.65C26.3956 14.85 27 14.2456 27 13.5V10.8C27 10.0544 26.3956 9.45 25.65 9.45Z" fill="#0A0D18"/>
<path d="M18.9864 8.01356C16.7005 5.73246 12.9995 5.73246 10.7136 8.01356C10.5409 8.19233 10.5459 8.47723 10.7247 8.64986C10.899 8.81828 11.1755 8.81828 11.3499 8.64986C13.27 6.70384 16.4041 6.68286 18.3501 8.60295C20.2961 10.523 20.3171 13.6571 18.397 15.6032C18.3815 15.6189 18.3658 15.6345 18.3501 15.6501C18.1713 15.8228 18.1664 16.1076 18.3391 16.2864C18.5117 16.4651 18.7966 16.4701 18.9754 16.2974C18.9791 16.2938 18.9828 16.2901 18.9864 16.2864C21.2675 14.0005 21.2675 10.2995 18.9864 8.01356Z" fill="#0A0D18"/>
</g>
<defs>
<clipPath id="clip0_100_531">
<rect width="27" height="27" fill="white"/>
</clipPath>
</defs>
</svg>
