<svg width="17" height="17" viewBox="0 0 17 17" fill="none" xmlns="http://www.w3.org/2000/svg">
<path fill-rule="evenodd" clip-rule="evenodd" d="M9.38558 2.83337C9.38558 2.53997 9.62344 2.30212 9.91683 2.30212L14.1668 2.30213C14.4602 2.30213 14.698 2.53998 14.698 2.83337L14.6981 7.08337C14.6981 7.37677 14.4603 7.61462 14.1668 7.61462C13.8734 7.61462 13.6356 7.37677 13.6356 7.08337V4.11592L7.45913 10.2923C7.25166 10.4998 6.91527 10.4998 6.7078 10.2924C6.50034 10.0849 6.50034 9.74855 6.7078 9.54108L12.8843 3.36463L9.91683 3.36462C9.62344 3.36462 9.38558 3.12677 9.38558 2.83337ZM2.30225 2.83338C2.30225 2.53998 2.5401 2.30213 2.8335 2.30213H7.0835C7.37689 2.30213 7.61475 2.53998 7.61475 2.83338C7.61475 3.12679 7.37689 3.36463 7.0835 3.36463H3.36475V13.6355H13.6356V9.91671C13.6356 9.62332 13.8734 9.38546 14.1668 9.38546C14.4602 9.38546 14.6981 9.62332 14.6981 9.91671V14.1667C14.6981 14.4601 14.4602 14.698 14.1668 14.698H2.8335C2.5401 14.698 2.30225 14.4601 2.30225 14.1667V2.83338Z" fill="white"/>
</svg>
