<svg width="19" height="17" viewBox="0 0 19 17" fill="none" xmlns="http://www.w3.org/2000/svg">
<g clip-path="url(#clip0_100_569)">
<path d="M0 0.796875C0 0.355273 0.352951 0 0.791667 0H2.29253C3.01823 0 3.66146 0.425 3.96163 1.0625H17.5189C18.3865 1.0625 19.0198 1.89258 18.7922 2.73594L17.4398 7.79277C17.1594 8.83535 16.2193 9.5625 15.1472 9.5625H5.63073L5.80885 10.5088C5.88142 10.884 6.20799 11.1562 6.58733 11.1562H16.0972C16.5359 11.1562 16.8889 11.5115 16.8889 11.9531C16.8889 12.3947 16.5359 12.75 16.0972 12.75H6.58733C5.44601 12.75 4.46632 11.9332 4.25521 10.8076L2.55313 1.80957C2.53003 1.6834 2.42118 1.59375 2.29253 1.59375H0.791667C0.352951 1.59375 0 1.23848 0 0.796875ZM4.22222 15.4062C4.22222 15.197 4.26318 14.9897 4.34275 14.7963C4.42232 14.603 4.53894 14.4273 4.68597 14.2793C4.833 14.1313 5.00754 14.0139 5.19964 13.9338C5.39174 13.8537 5.59763 13.8125 5.80556 13.8125C6.01348 13.8125 6.21937 13.8537 6.41147 13.9338C6.60357 14.0139 6.77812 14.1313 6.92514 14.2793C7.07217 14.4273 7.1888 14.603 7.26836 14.7963C7.34794 14.9897 7.38889 15.197 7.38889 15.4062C7.38889 15.6155 7.34794 15.8228 7.26836 16.0162C7.1888 16.2095 7.07217 16.3852 6.92514 16.5332C6.77812 16.6812 6.60357 16.7986 6.41147 16.8787C6.21937 16.9588 6.01348 17 5.80556 17C5.59763 17 5.39174 16.9588 5.19964 16.8787C5.00754 16.7986 4.833 16.6812 4.68597 16.5332C4.53894 16.3852 4.42232 16.2095 4.34275 16.0162C4.26318 15.8228 4.22222 15.6155 4.22222 15.4062ZM15.3056 13.8125C15.7255 13.8125 16.1282 13.9804 16.4251 14.2793C16.7221 14.5782 16.8889 14.9836 16.8889 15.4062C16.8889 15.8289 16.7221 16.2343 16.4251 16.5332C16.1282 16.8321 15.7255 17 15.3056 17C14.8856 17 14.4829 16.8321 14.186 16.5332C13.889 16.2343 13.7222 15.8289 13.7222 15.4062C13.7222 14.9836 13.889 14.5782 14.186 14.2793C14.4829 13.9804 14.8856 13.8125 15.3056 13.8125Z" fill="#0A0D18"/>
</g>
<defs>
<clipPath id="clip0_100_569">
<rect width="19" height="17" fill="white"/>
</clipPath>
</defs>
</svg>
