<svg width="19" height="15" viewBox="0 0 19 15" fill="none" xmlns="http://www.w3.org/2000/svg">
<g clip-path="url(#clip0_100_374)">
<path d="M11.6614 0.0347889C11.1567 -0.108766 10.6312 0.181273 10.4857 0.67932L6.68574 13.8043C6.54027 14.3024 6.83417 14.8209 7.33886 14.9645C7.84355 15.108 8.36902 14.818 8.51449 14.3199L12.3145 1.19495C12.46 0.696898 12.166 0.178344 11.6614 0.0347889ZM14.0542 3.55334C13.6831 3.91955 13.6831 4.51428 14.0542 4.88049L16.7053 7.49963L14.0512 10.1188C13.6801 10.485 13.6801 11.0797 14.0512 11.4459C14.4223 11.8121 15.025 11.8121 15.396 11.4459L18.721 8.16467C19.0921 7.79846 19.0921 7.20373 18.721 6.83752L15.396 3.55627C15.025 3.19006 14.4223 3.19006 14.0512 3.55627L14.0542 3.55334ZM4.94902 3.55334C4.57792 3.18713 3.97527 3.18713 3.60417 3.55334L0.279175 6.83459C-0.0919189 7.20081 -0.0919189 7.79553 0.279175 8.16174L3.60417 11.443C3.97527 11.8092 4.57792 11.8092 4.94902 11.443C5.32011 11.0768 5.32011 10.4821 4.94902 10.1158L2.29496 7.49963L4.94902 4.88049C5.32011 4.51428 5.32011 3.91955 4.94902 3.55334Z" fill="#08080B"/>
</g>
<defs>
<clipPath id="clip0_100_374">
<rect width="19" height="15" fill="white"/>
</clipPath>
</defs>
</svg>
