<svg width="19" height="19" viewBox="0 0 19 19" fill="none" xmlns="http://www.w3.org/2000/svg">
<g clip-path="url(#clip0_100_529)">
<path d="M4.58671 14.5209C5.06542 14.1721 5.68515 14.083 6.24179 14.2834C7.22518 14.6396 8.32733 14.8437 9.49999 14.8437C14.1275 14.8437 17.2187 11.8564 17.2187 8.90625C17.2187 5.95605 14.1275 2.96875 9.49999 2.96875C4.87245 2.96875 1.78124 5.95605 1.78124 8.90625C1.78124 10.0937 2.2414 11.2367 3.10604 12.2164C3.42518 12.5764 3.58104 13.0514 3.54393 13.5338C3.49198 14.2055 3.33241 14.8215 3.1246 15.367C3.75546 15.0738 4.2787 14.7473 4.58671 14.5246V14.5209ZM0.786708 16.0275C0.853505 15.9273 0.916591 15.8271 0.975966 15.727C1.34706 15.1109 1.6996 14.302 1.77011 13.3928C0.656826 12.1273 -1.03577e-05 10.5799 -1.03577e-05 8.90625C-1.03577e-05 4.64238 4.25272 1.1875 9.49999 1.1875C14.7473 1.1875 19 4.64238 19 8.90625C19 13.1701 14.7473 16.625 9.49999 16.625C8.12323 16.625 6.81698 16.3875 5.6369 15.9607C5.1953 16.2836 4.47538 16.7252 3.62186 17.0963C3.06151 17.3412 2.42323 17.5639 1.76268 17.6937C1.733 17.7012 1.70331 17.7049 1.67362 17.7123C1.51034 17.742 1.35077 17.768 1.18378 17.7828C1.17636 17.7828 1.16522 17.7865 1.1578 17.7865C0.968544 17.8051 0.779287 17.8162 0.590029 17.8162C0.348818 17.8162 0.133583 17.6715 0.04081 17.4488C-0.0519635 17.2262 -1.03656e-05 16.9738 0.166982 16.8031C0.31913 16.6473 0.456435 16.4803 0.586318 16.3021C0.649404 16.2168 0.708779 16.1314 0.764443 16.0461C0.768154 16.0387 0.771865 16.035 0.775576 16.0275H0.786708Z" fill="#08080B"/>
</g>
<defs>
<clipPath id="clip0_100_529">
<rect width="19" height="19" fill="white"/>
</clipPath>
</defs>
</svg>
