<svg width="19" height="19" viewBox="0 0 19 19" fill="none" xmlns="http://www.w3.org/2000/svg">
<g clip-path="url(#clip0_100_575)">
<path d="M0 9.5C0 6.98044 1.00089 4.56408 2.78249 2.78249C4.56408 1.00089 6.98044 0 9.5 0C12.0196 0 14.4359 1.00089 16.2175 2.78249C17.9991 4.56408 19 6.98044 19 9.5C19 12.0196 17.9991 14.4359 16.2175 16.2175C14.4359 17.9991 12.0196 19 9.5 19C6.98044 19 4.56408 17.9991 2.78249 16.2175C1.00089 14.4359 0 12.0196 0 9.5ZM10.6875 3.5625C10.6875 3.24756 10.5624 2.94551 10.3397 2.72281C10.117 2.50011 9.81494 2.375 9.5 2.375C9.18506 2.375 8.88301 2.50011 8.66031 2.72281C8.43761 2.94551 8.3125 3.24756 8.3125 3.5625C8.3125 3.87744 8.43761 4.17949 8.66031 4.40219C8.88301 4.62489 9.18506 4.75 9.5 4.75C9.81494 4.75 10.117 4.62489 10.3397 4.40219C10.5624 4.17949 10.6875 3.87744 10.6875 3.5625ZM9.5 15.4375C10.81 15.4375 11.875 14.3725 11.875 13.0625C11.875 12.4168 11.6189 11.8342 11.2033 11.4074L13.582 6.00059C13.7787 5.55156 13.5746 5.02461 13.1256 4.82793C12.6766 4.63125 12.1496 4.83535 11.9529 5.28437L9.57051 10.6875C9.54824 10.6875 9.52227 10.6875 9.5 10.6875C8.19004 10.6875 7.125 11.7525 7.125 13.0625C7.125 14.3725 8.19004 15.4375 9.5 15.4375ZM6.53125 5.34375C6.53125 5.02881 6.40614 4.72676 6.18344 4.50406C5.96074 4.28136 5.65869 4.15625 5.34375 4.15625C5.02881 4.15625 4.72676 4.28136 4.50406 4.50406C4.28136 4.72676 4.15625 5.02881 4.15625 5.34375C4.15625 5.65869 4.28136 5.96074 4.50406 6.18344C4.72676 6.40614 5.02881 6.53125 5.34375 6.53125C5.65869 6.53125 5.96074 6.40614 6.18344 6.18344C6.40614 5.96074 6.53125 5.65869 6.53125 5.34375ZM3.5625 10.6875C3.87744 10.6875 4.17949 10.5624 4.40219 10.3397C4.62489 10.117 4.75 9.81494 4.75 9.5C4.75 9.18506 4.62489 8.88301 4.40219 8.66031C4.17949 8.43761 3.87744 8.3125 3.5625 8.3125C3.24756 8.3125 2.94551 8.43761 2.72281 8.66031C2.50011 8.88301 2.375 9.18506 2.375 9.5C2.375 9.81494 2.50011 10.117 2.72281 10.3397C2.94551 10.5624 3.24756 10.6875 3.5625 10.6875ZM16.625 9.5C16.625 9.18506 16.4999 8.88301 16.2772 8.66031C16.0545 8.43761 15.7524 8.3125 15.4375 8.3125C15.1226 8.3125 14.8205 8.43761 14.5978 8.66031C14.3751 8.88301 14.25 9.18506 14.25 9.5C14.25 9.81494 14.3751 10.117 14.5978 10.3397C14.8205 10.5624 15.1226 10.6875 15.4375 10.6875C15.7524 10.6875 16.0545 10.5624 16.2772 10.3397C16.4999 10.117 16.625 9.81494 16.625 9.5Z" fill="#08080B"/>
</g>
<defs>
<clipPath id="clip0_100_575">
<rect width="19" height="19" fill="white"/>
</clipPath>
</defs>
</svg>
