<svg width="19" height="19" viewBox="0 0 19 19" fill="none" xmlns="http://www.w3.org/2000/svg">
<g clip-path="url(#clip0_100_565)">
<path d="M15.4375 7.71875C15.4375 9.42207 14.8846 10.9955 13.9531 12.2721L18.6512 16.9738C19.115 17.4377 19.115 18.191 18.6512 18.6549C18.1873 19.1187 17.434 19.1187 16.9701 18.6549L12.2721 13.9531C10.9955 14.8883 9.42207 15.4375 7.71875 15.4375C3.45488 15.4375 0 11.9826 0 7.71875C0 3.45488 3.45488 0 7.71875 0C11.9826 0 15.4375 3.45488 15.4375 7.71875ZM7.71875 13.0625C8.4205 13.0625 9.11538 12.9243 9.76371 12.6557C10.412 12.3872 11.0011 11.9936 11.4974 11.4974C11.9936 11.0011 12.3872 10.412 12.6557 9.76371C12.9243 9.11538 13.0625 8.4205 13.0625 7.71875C13.0625 7.017 12.9243 6.32212 12.6557 5.67379C12.3872 5.02545 11.9936 4.43636 11.4974 3.94015C11.0011 3.44393 10.412 3.05032 9.76371 2.78177C9.11538 2.51322 8.4205 2.375 7.71875 2.375C7.017 2.375 6.32212 2.51322 5.67379 2.78177C5.02545 3.05032 4.43636 3.44393 3.94015 3.94015C3.44393 4.43636 3.05032 5.02545 2.78177 5.67379C2.51322 6.32212 2.375 7.017 2.375 7.71875C2.375 8.4205 2.51322 9.11538 2.78177 9.76371C3.05032 10.412 3.44393 11.0011 3.94015 11.4974C4.43636 11.9936 5.02545 12.3872 5.67379 12.6557C6.32212 12.9243 7.017 13.0625 7.71875 13.0625Z" fill="#0A0D18"/>
</g>
<defs>
<clipPath id="clip0_100_565">
<rect width="19" height="19" fill="white"/>
</clipPath>
</defs>
</svg>
