<svg width="19" height="19" viewBox="0 0 19 19" fill="none" xmlns="http://www.w3.org/2000/svg">
<g clip-path="url(#clip0_100_573)">
<path d="M9.5 1.78125C5.23613 1.78125 1.78125 5.23613 1.78125 9.5V10.9844C1.78125 11.4779 1.38418 11.875 0.890625 11.875C0.39707 11.875 0 11.4779 0 10.9844V9.5C0 4.25273 4.25273 0 9.5 0C14.7473 0 19 4.25273 19 9.5V14.8475C19 16.651 17.5379 18.1131 15.7307 18.1131L11.6375 18.1094C11.3295 18.64 10.7543 19 10.0938 19H8.90625C7.92285 19 7.125 18.2021 7.125 17.2188C7.125 16.2354 7.92285 15.4375 8.90625 15.4375H10.0938C10.7543 15.4375 11.3295 15.7975 11.6375 16.3281L15.7344 16.3318C16.5545 16.3318 17.2188 15.6676 17.2188 14.8475V9.5C17.2188 5.23613 13.7639 1.78125 9.5 1.78125ZM5.34375 7.71875H5.9375C6.59434 7.71875 7.125 8.24941 7.125 8.90625V13.0625C7.125 13.7193 6.59434 14.25 5.9375 14.25H5.34375C4.03379 14.25 2.96875 13.185 2.96875 11.875V10.0938C2.96875 8.78379 4.03379 7.71875 5.34375 7.71875ZM13.6562 7.71875C14.9662 7.71875 16.0312 8.78379 16.0312 10.0938V11.875C16.0312 13.185 14.9662 14.25 13.6562 14.25H13.0625C12.4057 14.25 11.875 13.7193 11.875 13.0625V8.90625C11.875 8.24941 12.4057 7.71875 13.0625 7.71875H13.6562Z" fill="#08080B"/>
</g>
<defs>
<clipPath id="clip0_100_573">
<rect width="19" height="19" fill="white"/>
</clipPath>
</defs>
</svg>
