<svg width="19" height="25" viewBox="0 0 19 25" fill="none" xmlns="http://www.w3.org/2000/svg">
<g clip-path="url(#clip0_100_561)">
<path d="M10.6727 24.375C13.2109 21.2402 19 13.6426 19 9.375C19 4.19922 14.7448 0 9.5 0C4.25521 0 0 4.19922 0 9.375C0 13.6426 5.78906 21.2402 8.32734 24.375C8.93594 25.1221 10.0641 25.1221 10.6727 24.375ZM9.5 6.25C10.3399 6.25 11.1453 6.57924 11.7392 7.16529C12.333 7.75134 12.6667 8.5462 12.6667 9.375C12.6667 10.2038 12.333 10.9987 11.7392 11.5847C11.1453 12.1708 10.3399 12.5 9.5 12.5C8.66015 12.5 7.85469 12.1708 7.26083 11.5847C6.66696 10.9987 6.33333 10.2038 6.33333 9.375C6.33333 8.5462 6.66696 7.75134 7.26083 7.16529C7.85469 6.57924 8.66015 6.25 9.5 6.25Z" fill="#0A0D18"/>
</g>
<defs>
<clipPath id="clip0_100_561">
<rect width="19" height="25" fill="white"/>
</clipPath>
</defs>
</svg>
