<svg width="19" height="19" viewBox="0 0 19 19" fill="none" xmlns="http://www.w3.org/2000/svg">
<g clip-path="url(#clip0_100_563)">
<path d="M5.9375 1.1875C5.9375 0.530664 6.46816 0 7.125 0H8.3125C8.96934 0 9.5 0.530664 9.5 1.1875C10.1568 1.1875 10.6875 1.71816 10.6875 2.375V10.6875C10.6875 11.3443 10.1568 11.875 9.5 11.875C9.5 12.5318 8.96934 13.0625 8.3125 13.0625H7.125C6.46816 13.0625 5.9375 12.5318 5.9375 11.875C5.28066 11.875 4.75 11.3443 4.75 10.6875V2.375C4.75 1.71816 5.28066 1.1875 5.9375 1.1875ZM1.1875 16.625H11.875C14.4986 16.625 16.625 14.4986 16.625 11.875C16.625 9.25137 14.4986 7.125 11.875 7.125V4.75C15.8086 4.75 19 7.94141 19 11.875C19 13.7008 18.3135 15.3633 17.1854 16.625H17.8125C18.4693 16.625 19 17.1557 19 17.8125C19 18.4693 18.4693 19 17.8125 19H11.875H1.1875C0.530664 19 0 18.4693 0 17.8125C0 17.1557 0.530664 16.625 1.1875 16.625ZM4.15625 14.25H11.2812C11.6078 14.25 11.875 14.5172 11.875 14.8438C11.875 15.1703 11.6078 15.4375 11.2812 15.4375H4.15625C3.82969 15.4375 3.5625 15.1703 3.5625 14.8438C3.5625 14.5172 3.82969 14.25 4.15625 14.25Z" fill="#0A0D18"/>
</g>
<defs>
<clipPath id="clip0_100_563">
<rect width="19" height="19" fill="white"/>
</clipPath>
</defs>
</svg>
