<svg width="19" height="19" viewBox="0 0 19 19" fill="none" xmlns="http://www.w3.org/2000/svg">
<g clip-path="url(#clip0_100_525)">
<path d="M19 9.5C19 9.5334 19 9.5668 19 9.6002C18.9852 10.9547 17.7531 11.875 16.3986 11.875H12.7656C11.7822 11.875 10.9844 12.6729 10.9844 13.6562C10.9844 13.7824 10.9992 13.9049 11.0215 14.0236C11.0994 14.4021 11.2627 14.7658 11.4223 15.1332C11.6486 15.6453 11.8713 16.1537 11.8713 16.6918C11.8713 17.8719 11.0697 18.9443 9.88965 18.9926C9.75977 18.9963 9.62988 19 9.49629 19C4.25273 19 0 14.7473 0 9.5C0 4.25273 4.25273 0 9.5 0C14.7473 0 19 4.25273 19 9.5ZM4.75 10.6875C4.75 10.3726 4.62489 10.0705 4.40219 9.84781C4.17949 9.62511 3.87744 9.5 3.5625 9.5C3.24756 9.5 2.94551 9.62511 2.72281 9.84781C2.50011 10.0705 2.375 10.3726 2.375 10.6875C2.375 11.0024 2.50011 11.3045 2.72281 11.5272C2.94551 11.7499 3.24756 11.875 3.5625 11.875C3.87744 11.875 4.17949 11.7499 4.40219 11.5272C4.62489 11.3045 4.75 11.0024 4.75 10.6875ZM4.75 7.125C5.06494 7.125 5.36699 6.99989 5.58969 6.77719C5.81239 6.55449 5.9375 6.25244 5.9375 5.9375C5.9375 5.62256 5.81239 5.32051 5.58969 5.09781C5.36699 4.87511 5.06494 4.75 4.75 4.75C4.43506 4.75 4.13301 4.87511 3.91031 5.09781C3.68761 5.32051 3.5625 5.62256 3.5625 5.9375C3.5625 6.25244 3.68761 6.55449 3.91031 6.77719C4.13301 6.99989 4.43506 7.125 4.75 7.125ZM10.6875 3.5625C10.6875 3.24756 10.5624 2.94551 10.3397 2.72281C10.117 2.50011 9.81494 2.375 9.5 2.375C9.18506 2.375 8.88301 2.50011 8.66031 2.72281C8.43761 2.94551 8.3125 3.24756 8.3125 3.5625C8.3125 3.87744 8.43761 4.17949 8.66031 4.40219C8.88301 4.62489 9.18506 4.75 9.5 4.75C9.81494 4.75 10.117 4.62489 10.3397 4.40219C10.5624 4.17949 10.6875 3.87744 10.6875 3.5625ZM14.25 7.125C14.5649 7.125 14.867 6.99989 15.0897 6.77719C15.3124 6.55449 15.4375 6.25244 15.4375 5.9375C15.4375 5.62256 15.3124 5.32051 15.0897 5.09781C14.867 4.87511 14.5649 4.75 14.25 4.75C13.9351 4.75 13.633 4.87511 13.4103 5.09781C13.1876 5.32051 13.0625 5.62256 13.0625 5.9375C13.0625 6.25244 13.1876 6.55449 13.4103 6.77719C13.633 6.99989 13.9351 7.125 14.25 7.125Z" fill="#08080B"/>
</g>
<defs>
<clipPath id="clip0_100_525">
<rect width="19" height="19" fill="white"/>
</clipPath>
</defs>
</svg>
