<svg width="19" height="19" viewBox="0 0 19 19" fill="none" xmlns="http://www.w3.org/2000/svg">
<g clip-path="url(#clip0_100_571)">
<path d="M17.5008 0.805322C16.6881 -0.00737303 15.3744 -0.00737303 14.5617 0.805322L13.4447 1.9186L17.0777 5.55161L18.1947 4.43462C19.0074 3.62192 19.0074 2.30825 18.1947 1.49556L17.5008 0.805322ZM6.39766 8.96938C6.17129 9.19575 5.99687 9.47407 5.89668 9.78208L4.79824 13.0774C4.69063 13.3965 4.77598 13.7491 5.01348 13.9903C5.25098 14.2315 5.60352 14.3131 5.92637 14.2055L9.22168 13.1071C9.52598 13.0069 9.8043 12.8325 10.0344 12.6061L16.2428 6.39399L12.6061 2.75728L6.39766 8.96938ZM3.5625 2.37505C1.5957 2.37505 0 3.97075 0 5.93755V15.4375C0 17.4043 1.5957 19 3.5625 19H13.0625C15.0293 19 16.625 17.4043 16.625 15.4375V11.875C16.625 11.2182 16.0943 10.6875 15.4375 10.6875C14.7807 10.6875 14.25 11.2182 14.25 11.875V15.4375C14.25 16.0944 13.7193 16.625 13.0625 16.625H3.5625C2.90566 16.625 2.375 16.0944 2.375 15.4375V5.93755C2.375 5.28071 2.90566 4.75005 3.5625 4.75005H7.125C7.78184 4.75005 8.3125 4.21938 8.3125 3.56255C8.3125 2.90571 7.78184 2.37505 7.125 2.37505H3.5625Z" fill="#08080B"/>
</g>
<defs>
<clipPath id="clip0_100_571">
<rect width="19" height="19" fill="white"/>
</clipPath>
</defs>
</svg>
