<svg width="19" height="19" viewBox="0 0 19 19" fill="none" xmlns="http://www.w3.org/2000/svg">
<g clip-path="url(#clip0_100_527)">
<path d="M15.226 8.57241L15.6453 8.15308L14.3873 6.89507L12.0828 4.59058L10.8248 3.33257L10.4054 3.7519L9.56677 4.59058L2.17459 11.9828C1.78865 12.3687 1.50662 12.8474 1.35076 13.3707L0.0370869 17.8386C-0.0556865 18.1503 0.0296651 18.488 0.263454 18.7181C0.497243 18.9482 0.831228 19.0335 1.14295 18.9445L5.6072 17.6308C6.13045 17.475 6.60916 17.1929 6.99509 16.807L14.3873 9.4148L15.226 8.57241ZM5.93748 14.8216L5.59978 15.664C5.45134 15.7791 5.28435 15.8644 5.10623 15.9201L2.20427 16.7736L3.05779 13.8753C3.10974 13.6935 3.19881 13.5265 3.31384 13.3818L4.15623 13.0441V14.2316C4.15623 14.5582 4.42342 14.8253 4.74998 14.8253H5.93748V14.8216ZM13.4595 0.694092L12.9252 1.23218L12.0865 2.07085L11.6635 2.49019L12.9215 3.74819L15.226 6.05269L16.484 7.31069L16.9033 6.89136L17.742 6.05269L18.2801 5.5146C19.2078 4.58687 19.2078 3.08394 18.2801 2.1562L16.8217 0.694092C15.8939 -0.233643 14.391 -0.233643 13.4633 0.694092H13.4595ZM11.7006 6.92847L6.35681 12.2722C6.12674 12.5023 5.74822 12.5023 5.51814 12.2722C5.28806 12.0421 5.28806 11.6636 5.51814 11.4335L10.8619 6.0898C11.092 5.85972 11.4705 5.85972 11.7006 6.0898C11.9306 6.31987 11.9306 6.69839 11.7006 6.92847Z" fill="#08080B"/>
</g>
<defs>
<clipPath id="clip0_100_527">
<rect width="19" height="19" fill="white"/>
</clipPath>
</defs>
</svg>
