<svg width="19" height="19" viewBox="0 0 19 19" fill="none" xmlns="http://www.w3.org/2000/svg">
<path d="M2.375 1.1875C1.06504 1.1875 0 2.25254 0 3.5625V5.9375C0 7.24746 1.06504 8.3125 2.375 8.3125H16.625C17.935 8.3125 19 7.24746 19 5.9375V3.5625C19 2.25254 17.935 1.1875 16.625 1.1875H2.375ZM12.7656 3.85938C13.0018 3.85938 13.2284 3.95321 13.3954 4.12023C13.5624 4.28726 13.6562 4.51379 13.6562 4.75C13.6562 4.98621 13.5624 5.21274 13.3954 5.37977C13.2284 5.54679 13.0018 5.64062 12.7656 5.64062C12.5294 5.64062 12.3029 5.54679 12.1359 5.37977C11.9688 5.21274 11.875 4.98621 11.875 4.75C11.875 4.51379 11.9688 4.28726 12.1359 4.12023C12.3029 3.95321 12.5294 3.85938 12.7656 3.85938ZM14.5469 4.75C14.5469 4.51379 14.6407 4.28726 14.8077 4.12023C14.9748 3.95321 15.2013 3.85938 15.4375 3.85938C15.6737 3.85938 15.9002 3.95321 16.0673 4.12023C16.2343 4.28726 16.3281 4.51379 16.3281 4.75C16.3281 4.98621 16.2343 5.21274 16.0673 5.37977C15.9002 5.54679 15.6737 5.64062 15.4375 5.64062C15.2013 5.64062 14.9748 5.54679 14.8077 5.37977C14.6407 5.21274 14.5469 4.98621 14.5469 4.75ZM2.375 10.6875C1.06504 10.6875 0 11.7525 0 13.0625V15.4375C0 16.7475 1.06504 17.8125 2.375 17.8125H16.625C17.935 17.8125 19 16.7475 19 15.4375V13.0625C19 11.7525 17.935 10.6875 16.625 10.6875H2.375ZM12.7656 13.3594C13.0018 13.3594 13.2284 13.4532 13.3954 13.6202C13.5624 13.7873 13.6562 14.0138 13.6562 14.25C13.6562 14.4862 13.5624 14.7127 13.3954 14.8798C13.2284 15.0468 13.0018 15.1406 12.7656 15.1406C12.5294 15.1406 12.3029 15.0468 12.1359 14.8798C11.9688 14.7127 11.875 14.4862 11.875 14.25C11.875 14.0138 11.9688 13.7873 12.1359 13.6202C12.3029 13.4532 12.5294 13.3594 12.7656 13.3594ZM14.8438 14.25C14.8438 14.0138 14.9376 13.7873 15.1046 13.6202C15.2716 13.4532 15.4982 13.3594 15.7344 13.3594C15.9706 13.3594 16.1971 13.4532 16.3641 13.6202C16.5312 13.7873 16.625 14.0138 16.625 14.25C16.625 14.4862 16.5312 14.7127 16.3641 14.8798C16.1971 15.0468 15.9706 15.1406 15.7344 15.1406C15.4982 15.1406 15.2716 15.0468 15.1046 14.8798C14.9376 14.7127 14.8438 14.4862 14.8438 14.25Z" fill="#0A0D18"/>
</svg>
